<svg width="28" height="28" viewBox="0 0 28 28" fill="none" xmlns="http://www.w3.org/2000/svg">
<g opacity="0.6">
<path d="M23.9246 7.64139H6.86313L6.60951 4.81606C6.56803 4.35403 6.18081 4 5.71694 4H3.89616C3.40122 4 3 4.40122 3 4.89616C3 5.39109 3.40122 5.79232 3.89616 5.79232H4.89764C5.44493 11.8897 4.03045 -3.86977 5.92835 17.2755C6.00149 18.1031 6.44867 19.0012 7.21903 19.6114C5.83011 21.3851 7.09916 24 9.35846 24C11.2337 24 12.5563 22.1298 11.9132 20.3584H16.818C16.1758 22.1275 17.4955 24 19.3727 24C20.8709 24 22.0897 22.7812 22.0897 21.2831C22.0897 19.7849 20.8709 18.5661 19.3727 18.5661H9.36452C8.68378 18.5661 8.09057 18.1554 7.83452 17.557L22.1563 16.7153C22.5473 16.6924 22.8781 16.4181 22.9732 16.0381L24.7941 8.75489C24.9352 8.19014 24.5077 7.64139 23.9246 7.64139V7.64139ZM9.35846 22.2077C8.84867 22.2077 8.43388 21.7929 8.43388 21.2831C8.43388 20.7732 8.84867 20.3584 9.35846 20.3584C9.86829 20.3584 10.2831 20.7732 10.2831 21.2831C10.2831 21.7929 9.86829 22.2077 9.35846 22.2077ZM19.3727 22.2077C18.8629 22.2077 18.4481 21.7929 18.4481 21.2831C18.4481 20.7732 18.8629 20.3584 19.3727 20.3584C19.8825 20.3584 20.2973 20.7732 20.2973 21.2831C20.2973 21.7929 19.8825 22.2077 19.3727 22.2077ZM21.394 14.9648L7.59328 15.7758L7.02401 9.43367H22.7769L21.394 14.9648Z" fill="#161616"/>
</g>
</svg>
