<svg width="18" height="18" viewBox="0 0 18 18" fill="none" xmlns="http://www.w3.org/2000/svg">
<path d="M15.8782 4.79023C15.7693 4.63797 15.6021 4.54898 15.425 4.54898H4.47854L4.31583 2.57124C4.28921 2.24782 4.04077 2 3.74316 2H2.57497C2.25742 2 2 2.28086 2 2.62731C2 2.97377 2.25742 3.25462 2.57497 3.25462H3.2175L3.84772 10.915C3.84786 10.924 3.84745 10.9329 3.84791 10.9419C3.8492 10.966 3.85208 10.9896 3.85574 11.0127L3.8788 11.2928C3.87924 11.2981 3.87973 11.3034 3.8803 11.3086C3.95018 11.9691 4.25953 12.5414 4.70689 12.928C4.47509 13.251 4.33639 13.6571 4.33639 14.0981C4.33639 15.1468 5.11837 16 6.07952 16C7.0407 16 7.82268 15.1468 7.82268 14.0981C7.82268 13.871 7.78586 13.653 7.71861 13.4509H10.8655C10.7982 13.653 10.7614 13.871 10.7614 14.0981C10.7614 15.1468 11.5434 16 12.5046 16C13.4658 16 14.2477 15.1468 14.2477 14.0981C14.2477 13.0495 13.4658 12.1963 12.5046 12.1963H6.08341C5.64665 12.1963 5.26605 11.9088 5.10178 11.4899L14.2905 10.9007C14.5414 10.8847 14.7536 10.6926 14.8146 10.4267L15.9828 5.3284C16.0258 5.14104 15.9872 4.94251 15.8782 4.79023Z" fill="#161616"/>
</svg>
