<svg width="28" height="28" viewBox="0 0 28 28" fill="none" xmlns="http://www.w3.org/2000/svg">
<path d="M23.4784 17.8743C23.1696 17.382 22.7404 16.9875 22.2354 16.735L14.7865 12.1518V10.7104C15.2152 10.5688 15.5998 10.3156 15.9067 9.98261C16.3934 9.45721 16.6971 8.72238 16.6966 7.91893C16.697 7.11548 16.3935 6.3804 15.9067 5.855C15.4211 5.32816 14.7422 4.99949 14 5C13.2577 4.99954 12.5786 5.32811 12.0932 5.855C11.6065 6.3804 11.3029 7.11548 11.3033 7.91893H12.8764C12.8768 7.58012 13.0009 7.2819 13.2056 7.05907C13.4114 6.83747 13.6871 6.70322 14 6.70272C14.3128 6.70318 14.5885 6.83747 14.7943 7.05907C14.9988 7.2819 15.1231 7.58012 15.1236 7.91893C15.1231 8.25753 14.9988 8.55596 14.7943 8.77879C14.5885 9.00014 14.3128 9.13464 14 9.13514H13.2134V12.1514L5.65101 16.7946C5.18496 17.0531 4.78988 17.4358 4.50293 17.905C4.18539 18.4233 3.99977 19.0501 4 19.7162C3.99957 20.6203 4.3409 21.4463 4.88855 22.0382C5.43507 22.631 6.19847 23.0005 7.03374 23H20.9663C21.8015 23.0005 22.5649 22.631 23.1114 22.0382C23.6593 21.4464 24.0004 20.6203 24 19.7162C24.0002 19.0368 23.8073 18.3983 23.4784 17.8743ZM21.9993 20.8341C21.7323 21.1214 21.3723 21.2968 20.9663 21.2972H7.0337C6.62765 21.2968 6.26761 21.1213 6.0007 20.8341C5.73507 20.5454 5.57351 20.1557 5.57304 19.7162C5.57328 19.3909 5.6616 19.0956 5.81437 18.8451C5.96718 18.5951 6.18538 18.3937 6.43952 18.271L6.43839 18.2686L13.9993 13.6263C13.9993 13.6263 21.5094 18.2474 21.5293 18.2562C21.7918 18.3749 22.0177 18.5768 22.1761 18.83C22.3347 19.0837 22.4262 19.3843 22.4266 19.7161C22.4265 20.1557 22.2647 20.5454 21.9993 20.8341Z" fill="#C7AF67"/>
</svg>
