<svg width="28" height="28" viewBox="0 0 28 28" fill="none" xmlns="http://www.w3.org/2000/svg">
<path d="M23.7688 13.5667L21.271 11.0354C21.2702 11.0354 21.2702 11.0346 21.2694 11.0346L14.8192 4.49919C14.8192 4.49919 14.8184 4.49865 14.8184 4.49838L14.5578 4.23433C14.25 3.92189 13.7499 3.92189 13.4418 4.23433L13.1811 4.49838C13.1811 4.49865 13.1804 4.49865 13.1804 4.49865L6.73039 11.0349C6.7296 11.0349 6.7296 11.0357 6.72881 11.0357L4.23107 13.567C3.92298 13.8794 3.92298 14.3856 4.23107 14.6978C4.38486 14.8539 4.58718 14.9322 4.78923 14.9322C4.99129 14.9322 5.19361 14.8541 5.34739 14.6978L6.49853 13.5314V22.0666C6.49853 23.1327 7.3545 24 8.40619 24H19.5936C20.6453 24 21.5013 23.1327 21.5013 22.0666V13.5312L22.6524 14.6975C22.8062 14.8536 23.0085 14.9319 23.2106 14.9319C23.4127 14.9319 23.6147 14.8539 23.7685 14.6975C24.0771 14.3854 24.0771 13.8792 23.7688 13.5667ZM19.5936 22.4001H8.40619C8.22497 22.4001 8.07699 22.2502 8.07699 22.0661V11.9319L13.9999 5.93066L19.9226 11.9319V22.0663C19.9228 22.2502 19.7749 22.4001 19.5936 22.4001Z" fill="#C7AF67"/>
</svg>
