<svg width="18" height="18" viewBox="0 0 18 18" fill="none" xmlns="http://www.w3.org/2000/svg">
<path opacity="0.6" d="M13.9552 3.48885C13.3884 3.17849 12.7383 3 12.0446 3C10.8208 3 9.72487 3.55427 9.00119 4.4234C8.2741 3.55427 7.17917 3 5.9537 3C5.26174 3 4.6128 3.17849 4.0447 3.48885C2.82583 4.15974 2 5.4496 2 6.93194C2 7.35632 2.06948 7.76331 2.19533 8.14406C2.87401 11.1761 9.00119 15 9.00119 15C9.00119 15 15.1243 11.1761 15.804 8.14406C15.9298 7.76331 16 7.35576 16 6.93194C16 5.45016 15.1742 4.16068 13.9552 3.48885Z" fill="#161616"/>
</svg>
