<svg width="28" height="28" viewBox="0 0 28 28" fill="none" xmlns="http://www.w3.org/2000/svg">
<g opacity="0.6">
<path d="M24.6308 8.11971C24.2803 7.11969 23.6647 6.21759 22.8505 5.51091C22.0356 4.80358 21.0555 4.32134 20.016 4.11638C19.6244 4.03915 19.2217 4 18.8192 4C17.6448 4 16.5027 4.33208 15.5162 4.96037C14.9224 5.3386 14.4007 5.81298 13.971 6.36153C13.5414 5.81404 13.0201 5.34055 12.4269 4.96306C11.4409 4.33569 10.2995 4.00408 9.12606 4.00408C9.12599 4.00408 9.12608 4.00408 9.12603 4.00408C8.14825 4.00408 7.1669 4.24559 6.28834 4.70244C5.41043 5.15896 4.64903 5.82316 4.08654 6.62326C3.5102 7.44303 3.15912 8.36097 3.04305 9.35156C2.94143 10.2191 3.01991 11.1504 3.27638 12.1195C3.78442 14.0394 4.90893 15.7905 5.76282 16.9215C7.61944 19.3805 10.1722 21.6126 13.5671 23.7453L13.9726 24L14.3782 23.7453C18.554 21.122 21.4687 18.3524 23.2886 15.2782C24.3354 13.5102 24.8806 11.9351 24.9557 10.463C24.9976 9.64254 24.8882 8.85415 24.6308 8.11971ZM13.9727 22.1961C10.9397 20.243 8.64921 18.2139 6.97977 16.0027C6.20821 14.9808 5.19518 13.4099 4.75048 11.7295C4.54317 10.946 4.47825 10.2057 4.55754 9.52901C4.64379 8.79295 4.90498 8.1104 5.33394 7.50028C5.7565 6.89924 6.3298 6.39958 6.99181 6.05535C7.65406 5.71098 8.39207 5.52896 9.12606 5.52896C10.0091 5.52896 10.8674 5.77816 11.6082 6.24958C12.3304 6.7091 12.911 7.35732 13.2871 8.12417L13.9724 9.52102L14.6564 8.12358C15.0322 7.35582 15.6128 6.70675 16.3354 6.24656C17.0766 5.77444 17.9355 5.5249 18.8192 5.5249C19.1229 5.5249 19.4263 5.55436 19.721 5.61247C20.5 5.76607 21.2366 6.12917 21.851 6.66251C22.4652 7.19562 22.9288 7.87393 23.1918 8.6241C23.3834 9.17091 23.4645 9.7635 23.4328 10.3853C23.3707 11.6048 22.8943 12.9511 21.9765 14.5014C20.3415 17.2631 17.7206 19.7835 13.9727 22.1961Z" fill="#161616"/>
</g>
</svg>
