<svg width="28" height="28" viewBox="0 0 28 28" fill="none" xmlns="http://www.w3.org/2000/svg">
<path d="M21.8167 8.54743L18.6278 4.33799L18.6093 4.31253C18.5003 4.13671 18.3153 4.02199 18.1094 4.00244C18.0412 3.99659 17.9725 4.00128 17.9058 4.01632H17.8757L12.6527 4.66197C12.2932 4.70171 12.034 5.02541 12.0737 5.38491C12.1135 5.74441 12.4372 6.0036 12.7967 5.96385C12.8004 5.96345 12.804 5.96299 12.8077 5.96252L16.4294 5.51821L16.994 5.44878L16.7626 5.97178L14.8025 10.6001L14.6914 10.8639L14.4276 10.7991C10.8443 9.85198 7.17159 11.989 6.22446 15.5724C5.27734 19.1557 7.4144 22.8284 10.9978 23.7755C14.5811 24.7227 18.2538 22.5856 19.2009 19.0022C19.9642 16.1144 18.7269 13.0696 16.1655 11.5327L15.9202 11.3869L16.0313 11.1231L17.9914 6.49478L18.2228 5.97178L18.5653 6.43461L20.7707 9.34118C21.0031 9.62004 21.4175 9.6577 21.6964 9.4253C21.9573 9.20777 22.0095 8.82715 21.8167 8.54743ZM16.552 13.5043L16.5451 13.502C18.6503 15.6298 18.632 19.0614 16.5042 21.1666C14.3764 23.2719 10.9449 23.2536 8.83963 21.1258C6.73439 18.998 6.75267 15.5664 8.88047 13.4612C10.4414 11.9168 12.7799 11.4668 14.8025 12.3218C15.4578 12.5971 16.0523 12.999 16.552 13.5043Z" fill="#C7AF67"/>
</svg>
