<svg width="28" height="28" viewBox="0 0 28 28" fill="none" xmlns="http://www.w3.org/2000/svg">
<path fill-rule="evenodd" clip-rule="evenodd" d="M8.26777 16.2678C9.24408 15.2915 9.24408 13.7085 8.26777 12.7322C7.29146 11.7559 5.70854 11.7559 4.73223 12.7322C3.75592 13.7085 3.75592 15.2915 4.73223 16.2678C5.70854 17.2441 7.29146 17.2441 8.26777 16.2678ZM15.7678 12.7322C16.7441 13.7085 16.7441 15.2915 15.7678 16.2678C14.7915 17.2441 13.2086 17.2441 12.2322 16.2678C11.2559 15.2915 11.2559 13.7085 12.2322 12.7322C13.2086 11.7559 14.7915 11.7559 15.7678 12.7322ZM23.2678 12.7322C24.2441 13.7085 24.2441 15.2915 23.2678 16.2678C22.2915 17.2441 20.7085 17.2441 19.7322 16.2678C18.7559 15.2915 18.7559 13.7085 19.7322 12.7322C20.7085 11.7559 22.2915 11.7559 23.2678 12.7322Z" fill="#C7AF67"/>
</svg>
