<svg width="28" height="28" viewBox="0 0 28 28" fill="none" xmlns="http://www.w3.org/2000/svg">
<path d="M23.6959 22.2168L18.7656 17.2662C20.0332 15.8113 20.7278 13.9807 20.7278 12.075C20.7278 7.62251 16.9757 4 12.3639 4C7.75212 4 4 7.62251 4 12.075C4 16.5275 7.75212 20.15 12.3639 20.15C14.0952 20.15 15.7451 19.6458 17.1557 18.6888L22.1235 23.677C22.3311 23.8852 22.6104 24 22.9097 24C23.193 24 23.4617 23.8957 23.6657 23.7061C24.0992 23.3034 24.113 22.6357 23.6959 22.2168ZM12.3639 6.10652C15.7727 6.10652 18.5459 8.78391 18.5459 12.075C18.5459 15.3661 15.7727 18.0435 12.3639 18.0435C8.95507 18.0435 6.18189 15.3661 6.18189 12.075C6.18189 8.78391 8.95507 6.10652 12.3639 6.10652Z" fill="#161616" fill-opacity="0.6"/>
</svg>
