<svg width="28" height="28" viewBox="0 0 28 28" fill="none" xmlns="http://www.w3.org/2000/svg">
<g opacity="0.6">
<path d="M20.7392 9.12149L20.7392 9.12161C20.9041 9.95951 20.9041 10.8216 20.7392 11.6595L20.7392 11.6596C20.6572 12.0753 20.5341 12.4817 20.3719 12.8731C19.7726 14.3229 18.6698 15.5074 17.2665 16.2087C16.6433 16.5207 15.9736 16.7295 15.2835 16.8271L15.2831 16.8271C15.2476 16.832 15.2151 16.8495 15.1915 16.8762C15.1676 16.9037 15.1544 16.9389 15.1543 16.9754V17.092V18.7765V18.7769C15.1542 18.8171 15.17 18.8557 15.1983 18.8843C15.2269 18.9126 15.2655 18.9284 15.3057 18.9282L15.3061 18.9282L17.9816 18.9282H17.982C18.1884 18.9291 18.3862 19.011 18.5327 19.1563L18.533 19.1566L18.6222 19.2459L18.629 19.2526L18.6343 19.2605C18.6644 19.305 18.6899 19.3524 18.7104 19.4021L18.7105 19.4024C18.7883 19.5928 18.7884 19.806 18.7109 19.9965C18.6733 20.0944 18.6161 20.1834 18.543 20.2584L18.5413 20.2602L18.5412 20.2602C18.4662 20.3334 18.377 20.3905 18.2792 20.4281C18.1847 20.4663 18.0836 20.4858 17.9816 20.4854C17.9815 20.4854 17.9814 20.4854 17.9812 20.4854M20.7392 9.12149L17.9816 20.3854L17.9812 20.4854M20.7392 9.12149C20.657 8.70662 20.534 8.30087 20.3719 7.91023L20.7392 9.12149ZM17.9812 20.4854L15.3107 20.4854H15.3102C15.27 20.4853 15.2314 20.5011 15.2028 20.5294M17.9812 20.4854L15.2028 20.5294M13.688 20.6372C13.6889 20.5729 13.6651 20.5106 13.6216 20.4632C13.5742 20.4161 13.51 20.3897 13.4431 20.39H10.7698C10.681 20.3894 10.5932 20.3715 10.5112 20.3374C10.4259 20.3043 10.3481 20.2545 10.2823 20.1909L10.2686 20.1794C10.0223 19.9097 10.0304 19.4943 10.2869 19.2342C10.4148 19.1073 10.5874 19.0358 10.7676 19.0351H13.4362C13.5752 19.0351 13.688 18.9224 13.688 18.7833V16.9752C13.6934 16.8412 13.5927 16.7264 13.4591 16.7143C12.7891 16.6107 12.1401 16.4006 11.5366 16.0918C10.5413 15.5934 9.69271 14.8449 9.0739 13.9198C8.6086 13.2272 8.28497 12.4493 8.12179 11.6311C7.9594 10.8059 7.9594 9.95697 8.12179 9.13177C8.28509 8.31349 8.60866 7.53567 9.0739 6.84304L13.688 20.6372ZM13.688 20.6372V23.3127M13.688 20.6372V23.3127M8.99084 6.78736C8.51827 7.49092 8.1896 8.28101 8.02372 9.1122L8.02367 9.11246C7.85878 9.95041 7.85878 10.8124 8.02367 11.6504L8.02372 11.6506C8.18947 12.4818 8.51818 13.2719 8.99078 13.9754C9.61914 14.9148 10.4808 15.6749 11.4914 16.181C12.1043 16.4946 12.7634 16.708 13.4438 16.8131L13.4438 16.8133L13.4501 16.8139C13.5306 16.8212 13.5913 16.8904 13.5881 16.9712L13.588 16.9712V16.9752V18.7833C13.588 18.8671 13.52 18.9351 13.4362 18.9351H10.7676L10.7671 18.9351C10.5608 18.9359 10.363 19.0179 10.2165 19.1632L10.2157 19.164C9.92181 19.4619 9.91256 19.9378 10.1948 20.2469L10.1941 20.2475L10.2046 20.2563L10.2156 20.2654C10.29 20.3367 10.3778 20.3927 10.4739 20.4302C10.5675 20.4689 10.6678 20.4893 10.7691 20.49H10.7698H13.4431L13.4435 20.49C13.483 20.4898 13.521 20.5051 13.5495 20.5326C13.5748 20.5609 13.5885 20.5978 13.588 20.6358V20.6372L13.588 23.3123C13.588 23.3124 13.588 23.3124 13.588 23.3125V23.3127H13.688M8.99084 6.78736L15.1589 23.3123L15.0589 23.3127H15.1589V23.3125C15.1593 23.4145 15.1398 23.5157 15.1016 23.6103C15.064 23.7082 15.0068 23.7973 14.9337 23.8723L14.9319 23.8741L14.9319 23.8741C14.8569 23.9472 14.7678 24.0044 14.67 24.042M8.99084 6.78736C9.4663 6.07671 10.0767 5.46628 10.7874 4.99081C11.4909 4.51817 12.281 4.18944 13.1123 4.02368L13.1125 4.02363C13.9505 3.85879 14.8125 3.85879 15.6504 4.02363L15.6507 4.02368C16.4819 4.1895 17.272 4.51825 17.9756 4.99084C18.6864 5.467 19.2969 6.07817 19.7721 6.78967L8.99084 6.78736ZM13.688 23.3127C13.6876 23.4021 13.7047 23.4908 13.7383 23.5736M13.7383 23.5736L13.6449 23.6094C13.645 23.6097 13.6452 23.61 13.6453 23.6103C13.6454 23.6106 13.6455 23.6109 13.6456 23.6112L13.7383 23.5736ZM13.7383 23.5736C13.771 23.6591 13.8209 23.737 13.8848 23.8025C13.9503 23.8664 14.0282 23.9163 14.1137 23.949L14.0758 24.0415C14.0762 24.0417 14.0766 24.0418 14.0769 24.042C14.267 24.1193 14.4798 24.1193 14.67 24.042M14.67 24.042C14.6696 24.0421 14.6693 24.0422 14.669 24.0424L14.6332 23.949L14.671 24.0415C14.6707 24.0417 14.6703 24.0418 14.67 24.042ZM15.2028 20.5294C15.2029 20.5294 15.203 20.5293 15.2031 20.5292L15.1322 20.4587L15.2027 20.5296C15.2027 20.5295 15.2028 20.5295 15.2028 20.5294ZM19.2088 11.3523L19.2068 11.3622V11.3714C18.6526 14.047 16.0364 15.7699 13.3585 15.2207C10.6773 14.6709 8.94945 12.0516 9.49926 9.37043C10.0491 6.68922 12.6684 4.96136 15.3496 5.51118C17.6646 5.98589 19.3223 8.02918 19.3098 10.3923C19.3076 10.7148 19.2738 11.0364 19.2088 11.3523Z" fill="white" stroke="black" stroke-width="0.2"/>
</g>
</svg>
