<svg width="28" height="28" viewBox="0 0 28 28" fill="none" xmlns="http://www.w3.org/2000/svg">
<path d="M20.6411 9.14092C20.5602 8.7325 20.4391 8.33306 20.2795 7.9485C20.1195 7.56222 19.9217 7.1927 19.689 6.84533C19.221 6.14464 18.6199 5.54276 17.9198 5.07386C17.2272 4.60862 16.4494 4.28499 15.6311 4.12175C14.8059 3.95942 13.957 3.95942 13.1318 4.12175C12.3135 4.28493 11.5357 4.60856 10.8431 5.07386C10.1432 5.54207 9.54211 6.14321 9.0739 6.84304C8.60866 7.53567 8.28509 8.31349 8.12179 9.13177C7.9594 9.95697 7.9594 10.8059 8.12179 11.6311C8.28497 12.4493 8.6086 13.2272 9.0739 13.9198C9.69271 14.8449 10.5413 15.5934 11.5366 16.0918C12.1401 16.4006 12.7891 16.6107 13.4591 16.7143C13.5927 16.7264 13.6934 16.8412 13.688 16.9752V18.7833C13.688 18.9224 13.5752 19.0351 13.4362 19.0351H10.7676C10.5874 19.0358 10.4148 19.1073 10.2869 19.2342C10.0304 19.4943 10.0223 19.9097 10.2686 20.1794L10.2823 20.1909C10.3481 20.2545 10.4259 20.3043 10.5112 20.3374C10.5932 20.3715 10.681 20.3894 10.7698 20.39H13.4431C13.51 20.3897 13.5742 20.4161 13.6216 20.4632C13.6651 20.5106 13.6889 20.5729 13.688 20.6372V23.3127C13.6876 23.4021 13.7047 23.4908 13.7383 23.5736C13.771 23.6591 13.8209 23.737 13.8848 23.8025C13.9503 23.8664 14.0282 23.9163 14.1137 23.949C14.2802 24.017 14.4667 24.017 14.6332 23.949C14.7187 23.9162 14.7966 23.8664 14.8621 23.8025C14.9259 23.737 14.9758 23.6591 15.0086 23.5736C15.0422 23.4908 15.0593 23.4021 15.0589 23.3127V20.6372C15.0586 20.5703 15.085 20.5061 15.1322 20.4587C15.1796 20.4115 15.2438 20.3851 15.3107 20.3854H17.9816C18.071 20.3858 18.1597 20.3687 18.2425 20.3351C18.328 20.3023 18.4059 20.2525 18.4714 20.1886C18.5353 20.1231 18.5852 20.0452 18.6179 19.9597C18.6859 19.7932 18.6859 19.6067 18.6179 19.4402C18.6 19.3968 18.5778 19.3554 18.5515 19.3166L18.4622 19.2273C18.3344 19.1005 18.1617 19.029 17.9816 19.0282H15.3061C15.2392 19.0285 15.175 19.0021 15.1276 18.955C15.0804 18.9075 15.0541 18.8433 15.0543 18.7765V17.092V16.9752C15.0545 16.9146 15.0764 16.8562 15.1161 16.8104C15.1557 16.7655 15.2101 16.7362 15.2695 16.728C15.9489 16.632 16.6082 16.4264 17.2218 16.1192C18.6035 15.4287 19.6894 14.2625 20.2795 12.8349C20.4392 12.4496 20.5603 12.0494 20.6411 11.6402C20.8035 10.815 20.8035 9.96606 20.6411 9.14092ZM19.3068 11.3724V11.3816C18.7459 14.1169 16.0737 15.8796 13.3384 15.3187C10.6031 14.7578 8.84039 12.0857 9.4013 9.35034C9.96221 6.61503 12.6344 4.85231 15.3697 5.41322C17.7314 5.89751 19.4226 7.98202 19.4098 10.3929C19.4076 10.7219 19.3731 11.0501 19.3068 11.3724Z" fill="#C7AF67"/>
</svg>
